<svg width="162" height="64" viewBox="0 0 162 64" fill="none" xmlns="http://www.w3.org/2000/svg">
<path fill-rule="evenodd" clip-rule="evenodd" d="M161.257 63.9758C154.42 63.7062 147.618 61.2515 141.971 56.5134L131.825 48H32C23.1634 48 16 40.8366 16 32C16 23.1634 23.1634 16 32 16H93.689L74.621 0H32C14.3269 0 0 14.3269 0 32C0 49.6731 14.3269 64 32 64H160C160.421 64 160.84 63.9919 161.257 63.9758ZM103.223 24H32C27.5817 24 24 27.5817 24 32C24 36.4183 27.5817 40 32 40H122.291L103.223 24Z" fill="#5D1942"/>
</svg>
